<mxfile host="Electron" modified="2023-12-13T19:33:19.849Z" agent="Mozilla/5.0 (Windows NT 10.0; Win64; x64) AppleWebKit/537.36 (KHTML, like Gecko) draw.io/22.1.2 Chrome/114.0.5735.289 Electron/25.9.4 Safari/537.36" etag="U2nepYA-B3oIL_uL_L1O" version="22.1.2" type="device">
  <diagram name="Page-1" id="37xXbm6Ucc00DsX8tHgN">
    <mxGraphModel dx="1449" dy="1171" grid="1" gridSize="10" guides="1" tooltips="1" connect="1" arrows="1" fold="1" page="1" pageScale="1.25" pageWidth="850" pageHeight="1100" math="0" shadow="0">
      <root>
        <mxCell id="0" />
        <mxCell id="1" parent="0" />
        <mxCell id="QZjYZNE4ChBwINTzzqIZ-1" value="&lt;b&gt;p_mat_storage&lt;/b&gt;" style="rounded=0;whiteSpace=wrap;html=1;" parent="1" vertex="1">
          <mxGeometry x="270" y="238" width="260" height="250" as="geometry" />
        </mxCell>
        <mxCell id="QZjYZNE4ChBwINTzzqIZ-2" value="" style="triangle;whiteSpace=wrap;html=1;direction=north;" parent="1" vertex="1">
          <mxGeometry x="385" y="458" width="30" height="30" as="geometry" />
        </mxCell>
        <mxCell id="QZjYZNE4ChBwINTzzqIZ-3" value="rst" style="text;html=1;strokeColor=none;fillColor=none;align=center;verticalAlign=middle;whiteSpace=wrap;rounded=0;" parent="1" vertex="1">
          <mxGeometry x="340" y="458" width="60" height="30" as="geometry" />
        </mxCell>
        <mxCell id="QZjYZNE4ChBwINTzzqIZ-4" value="load" style="text;html=1;strokeColor=none;fillColor=none;align=center;verticalAlign=middle;whiteSpace=wrap;rounded=0;" parent="1" vertex="1">
          <mxGeometry x="270" y="253" width="50" height="20" as="geometry" />
        </mxCell>
        <mxCell id="QZjYZNE4ChBwINTzzqIZ-6" value="done" style="text;html=1;strokeColor=none;fillColor=none;align=center;verticalAlign=middle;whiteSpace=wrap;rounded=0;" parent="1" vertex="1">
          <mxGeometry x="270" y="273" width="50" height="20" as="geometry" />
        </mxCell>
        <mxCell id="QZjYZNE4ChBwINTzzqIZ-18" value="data_in" style="text;html=1;strokeColor=none;fillColor=none;align=center;verticalAlign=middle;whiteSpace=wrap;rounded=0;" parent="1" vertex="1">
          <mxGeometry x="270" y="293" width="60" height="20" as="geometry" />
        </mxCell>
        <mxCell id="QZjYZNE4ChBwINTzzqIZ-19" value="rd_data_in" style="text;html=1;strokeColor=none;fillColor=none;align=center;verticalAlign=middle;whiteSpace=wrap;rounded=0;" parent="1" vertex="1">
          <mxGeometry x="270" y="313" width="70" height="20" as="geometry" />
        </mxCell>
        <mxCell id="QZjYZNE4ChBwINTzzqIZ-20" value="rdy_data_in" style="text;html=1;strokeColor=none;fillColor=none;align=center;verticalAlign=middle;whiteSpace=wrap;rounded=0;" parent="1" vertex="1">
          <mxGeometry x="270" y="338" width="70" height="20" as="geometry" />
        </mxCell>
        <mxCell id="QZjYZNE4ChBwINTzzqIZ-21" value="rd_slice_addr" style="text;html=1;strokeColor=none;fillColor=none;align=center;verticalAlign=middle;whiteSpace=wrap;rounded=0;" parent="1" vertex="1">
          <mxGeometry x="450" y="253" width="80" height="20" as="geometry" />
        </mxCell>
        <mxCell id="QZjYZNE4ChBwINTzzqIZ-88" style="edgeStyle=orthogonalEdgeStyle;rounded=0;orthogonalLoop=1;jettySize=auto;html=1;entryX=0;entryY=0.5;entryDx=0;entryDy=0;" parent="1" source="QZjYZNE4ChBwINTzzqIZ-22" target="QZjYZNE4ChBwINTzzqIZ-46" edge="1">
          <mxGeometry relative="1" as="geometry">
            <Array as="points">
              <mxPoint x="560" y="283" />
              <mxPoint x="560" y="558" />
              <mxPoint x="440" y="558" />
              <mxPoint x="440" y="733" />
            </Array>
          </mxGeometry>
        </mxCell>
        <mxCell id="QZjYZNE4ChBwINTzzqIZ-89" value="/17424" style="edgeLabel;html=1;align=center;verticalAlign=middle;resizable=0;points=[];" parent="QZjYZNE4ChBwINTzzqIZ-88" vertex="1" connectable="0">
          <mxGeometry x="-0.6523" y="3" relative="1" as="geometry">
            <mxPoint as="offset" />
          </mxGeometry>
        </mxCell>
        <mxCell id="QZjYZNE4ChBwINTzzqIZ-22" value="rd_slice_data" style="text;html=1;strokeColor=none;fillColor=none;align=center;verticalAlign=middle;whiteSpace=wrap;rounded=0;" parent="1" vertex="1">
          <mxGeometry x="450" y="273" width="80" height="20" as="geometry" />
        </mxCell>
        <mxCell id="QZjYZNE4ChBwINTzzqIZ-23" value="&lt;b&gt;s_vec_storage&lt;/b&gt;" style="rounded=0;whiteSpace=wrap;html=1;" parent="1" vertex="1">
          <mxGeometry x="670" y="238" width="260" height="250" as="geometry" />
        </mxCell>
        <mxCell id="QZjYZNE4ChBwINTzzqIZ-24" value="" style="triangle;whiteSpace=wrap;html=1;direction=north;" parent="1" vertex="1">
          <mxGeometry x="785" y="458" width="30" height="30" as="geometry" />
        </mxCell>
        <mxCell id="QZjYZNE4ChBwINTzzqIZ-25" value="rst" style="text;html=1;strokeColor=none;fillColor=none;align=center;verticalAlign=middle;whiteSpace=wrap;rounded=0;" parent="1" vertex="1">
          <mxGeometry x="740" y="458" width="60" height="30" as="geometry" />
        </mxCell>
        <mxCell id="QZjYZNE4ChBwINTzzqIZ-26" value="load" style="text;html=1;strokeColor=none;fillColor=none;align=center;verticalAlign=middle;whiteSpace=wrap;rounded=0;" parent="1" vertex="1">
          <mxGeometry x="670" y="253" width="50" height="20" as="geometry" />
        </mxCell>
        <mxCell id="QZjYZNE4ChBwINTzzqIZ-27" value="done" style="text;html=1;strokeColor=none;fillColor=none;align=center;verticalAlign=middle;whiteSpace=wrap;rounded=0;" parent="1" vertex="1">
          <mxGeometry x="670" y="273" width="50" height="20" as="geometry" />
        </mxCell>
        <mxCell id="QZjYZNE4ChBwINTzzqIZ-28" value="data_in" style="text;html=1;strokeColor=none;fillColor=none;align=center;verticalAlign=middle;whiteSpace=wrap;rounded=0;" parent="1" vertex="1">
          <mxGeometry x="670" y="293" width="60" height="20" as="geometry" />
        </mxCell>
        <mxCell id="QZjYZNE4ChBwINTzzqIZ-31" value="rd_addr_0" style="text;html=1;strokeColor=none;fillColor=none;align=center;verticalAlign=middle;whiteSpace=wrap;rounded=0;" parent="1" vertex="1">
          <mxGeometry x="850" y="253" width="80" height="20" as="geometry" />
        </mxCell>
        <mxCell id="QZjYZNE4ChBwINTzzqIZ-80" style="edgeStyle=orthogonalEdgeStyle;rounded=0;orthogonalLoop=1;jettySize=auto;html=1;entryX=0;entryY=0.5;entryDx=0;entryDy=0;" parent="1" source="QZjYZNE4ChBwINTzzqIZ-32" target="QZjYZNE4ChBwINTzzqIZ-40" edge="1">
          <mxGeometry relative="1" as="geometry">
            <Array as="points">
              <mxPoint x="960" y="283" />
              <mxPoint x="960" y="568" />
              <mxPoint x="470" y="568" />
              <mxPoint x="470" y="693" />
            </Array>
          </mxGeometry>
        </mxCell>
        <mxCell id="QZjYZNE4ChBwINTzzqIZ-82" value="/256" style="edgeLabel;html=1;align=center;verticalAlign=middle;resizable=0;points=[];" parent="QZjYZNE4ChBwINTzzqIZ-80" vertex="1" connectable="0">
          <mxGeometry x="-0.1516" relative="1" as="geometry">
            <mxPoint as="offset" />
          </mxGeometry>
        </mxCell>
        <mxCell id="QZjYZNE4ChBwINTzzqIZ-32" value="rd_data_0" style="text;html=1;strokeColor=none;fillColor=none;align=center;verticalAlign=middle;whiteSpace=wrap;rounded=0;" parent="1" vertex="1">
          <mxGeometry x="850" y="273" width="80" height="20" as="geometry" />
        </mxCell>
        <mxCell id="QZjYZNE4ChBwINTzzqIZ-33" value="rd_addr_1" style="text;html=1;strokeColor=none;fillColor=none;align=center;verticalAlign=middle;whiteSpace=wrap;rounded=0;" parent="1" vertex="1">
          <mxGeometry x="850" y="293" width="80" height="20" as="geometry" />
        </mxCell>
        <mxCell id="QZjYZNE4ChBwINTzzqIZ-81" style="edgeStyle=orthogonalEdgeStyle;rounded=0;orthogonalLoop=1;jettySize=auto;html=1;entryX=0;entryY=0.25;entryDx=0;entryDy=0;" parent="1" source="QZjYZNE4ChBwINTzzqIZ-34" target="QZjYZNE4ChBwINTzzqIZ-45" edge="1">
          <mxGeometry relative="1" as="geometry">
            <Array as="points">
              <mxPoint x="950" y="323" />
              <mxPoint x="950" y="578" />
              <mxPoint x="450" y="578" />
              <mxPoint x="450" y="708" />
            </Array>
          </mxGeometry>
        </mxCell>
        <mxCell id="QZjYZNE4ChBwINTzzqIZ-83" value="/256" style="edgeLabel;html=1;align=center;verticalAlign=middle;resizable=0;points=[];" parent="QZjYZNE4ChBwINTzzqIZ-81" vertex="1" connectable="0">
          <mxGeometry x="-0.2508" y="1" relative="1" as="geometry">
            <mxPoint as="offset" />
          </mxGeometry>
        </mxCell>
        <mxCell id="QZjYZNE4ChBwINTzzqIZ-34" value="rd_data_1" style="text;html=1;strokeColor=none;fillColor=none;align=center;verticalAlign=middle;whiteSpace=wrap;rounded=0;" parent="1" vertex="1">
          <mxGeometry x="850" y="313" width="80" height="20" as="geometry" />
        </mxCell>
        <mxCell id="QZjYZNE4ChBwINTzzqIZ-35" value="&lt;b&gt;compute_y_long&lt;/b&gt;" style="rounded=0;whiteSpace=wrap;html=1;" parent="1" vertex="1">
          <mxGeometry x="490" y="628" width="260" height="250" as="geometry" />
        </mxCell>
        <mxCell id="QZjYZNE4ChBwINTzzqIZ-36" value="" style="triangle;whiteSpace=wrap;html=1;direction=north;" parent="1" vertex="1">
          <mxGeometry x="605" y="848" width="30" height="30" as="geometry" />
        </mxCell>
        <mxCell id="QZjYZNE4ChBwINTzzqIZ-37" value="rst" style="text;html=1;strokeColor=none;fillColor=none;align=center;verticalAlign=middle;whiteSpace=wrap;rounded=0;" parent="1" vertex="1">
          <mxGeometry x="560" y="848" width="60" height="30" as="geometry" />
        </mxCell>
        <mxCell id="QZjYZNE4ChBwINTzzqIZ-38" value="en" style="text;html=1;strokeColor=none;fillColor=none;align=center;verticalAlign=middle;whiteSpace=wrap;rounded=0;" parent="1" vertex="1">
          <mxGeometry x="490" y="643" width="50" height="20" as="geometry" />
        </mxCell>
        <mxCell id="QZjYZNE4ChBwINTzzqIZ-39" value="done" style="text;html=1;strokeColor=none;fillColor=none;align=center;verticalAlign=middle;whiteSpace=wrap;rounded=0;" parent="1" vertex="1">
          <mxGeometry x="490" y="663" width="50" height="20" as="geometry" />
        </mxCell>
        <mxCell id="QZjYZNE4ChBwINTzzqIZ-40" value="S_data_0" style="text;html=1;strokeColor=none;fillColor=none;align=center;verticalAlign=middle;whiteSpace=wrap;rounded=0;" parent="1" vertex="1">
          <mxGeometry x="490" y="683" width="60" height="20" as="geometry" />
        </mxCell>
        <mxCell id="QZjYZNE4ChBwINTzzqIZ-75" style="edgeStyle=orthogonalEdgeStyle;rounded=0;orthogonalLoop=1;jettySize=auto;html=1;entryX=1;entryY=0.5;entryDx=0;entryDy=0;" parent="1" source="QZjYZNE4ChBwINTzzqIZ-41" target="QZjYZNE4ChBwINTzzqIZ-31" edge="1">
          <mxGeometry relative="1" as="geometry">
            <Array as="points">
              <mxPoint x="990" y="673" />
              <mxPoint x="990" y="263" />
            </Array>
          </mxGeometry>
        </mxCell>
        <mxCell id="QZjYZNE4ChBwINTzzqIZ-78" value="/7" style="edgeLabel;html=1;align=center;verticalAlign=middle;resizable=0;points=[];" parent="QZjYZNE4ChBwINTzzqIZ-75" vertex="1" connectable="0">
          <mxGeometry x="-0.7352" y="2" relative="1" as="geometry">
            <mxPoint as="offset" />
          </mxGeometry>
        </mxCell>
        <mxCell id="QZjYZNE4ChBwINTzzqIZ-41" value="S_addr_0" style="text;html=1;strokeColor=none;fillColor=none;align=center;verticalAlign=middle;whiteSpace=wrap;rounded=0;" parent="1" vertex="1">
          <mxGeometry x="670" y="663" width="80" height="20" as="geometry" />
        </mxCell>
        <mxCell id="QZjYZNE4ChBwINTzzqIZ-45" value="S_data_1" style="text;html=1;strokeColor=none;fillColor=none;align=center;verticalAlign=middle;whiteSpace=wrap;rounded=0;" parent="1" vertex="1">
          <mxGeometry x="490" y="703" width="60" height="20" as="geometry" />
        </mxCell>
        <mxCell id="QZjYZNE4ChBwINTzzqIZ-46" value="P_data" style="text;html=1;strokeColor=none;fillColor=none;align=center;verticalAlign=middle;whiteSpace=wrap;rounded=0;" parent="1" vertex="1">
          <mxGeometry x="490" y="723" width="60" height="20" as="geometry" />
        </mxCell>
        <mxCell id="QZjYZNE4ChBwINTzzqIZ-76" style="edgeStyle=orthogonalEdgeStyle;rounded=0;orthogonalLoop=1;jettySize=auto;html=1;entryX=1;entryY=0.5;entryDx=0;entryDy=0;" parent="1" source="QZjYZNE4ChBwINTzzqIZ-47" target="QZjYZNE4ChBwINTzzqIZ-33" edge="1">
          <mxGeometry relative="1" as="geometry">
            <Array as="points">
              <mxPoint x="1020" y="698" />
              <mxPoint x="1020" y="303" />
            </Array>
          </mxGeometry>
        </mxCell>
        <mxCell id="QZjYZNE4ChBwINTzzqIZ-79" value="/7" style="edgeLabel;html=1;align=center;verticalAlign=middle;resizable=0;points=[];" parent="QZjYZNE4ChBwINTzzqIZ-76" vertex="1" connectable="0">
          <mxGeometry x="-0.7377" y="-2" relative="1" as="geometry">
            <mxPoint as="offset" />
          </mxGeometry>
        </mxCell>
        <mxCell id="QZjYZNE4ChBwINTzzqIZ-47" value="S_addr_1" style="text;html=1;strokeColor=none;fillColor=none;align=center;verticalAlign=middle;whiteSpace=wrap;rounded=0;" parent="1" vertex="1">
          <mxGeometry x="670" y="688" width="80" height="20" as="geometry" />
        </mxCell>
        <mxCell id="QZjYZNE4ChBwINTzzqIZ-71" style="edgeStyle=orthogonalEdgeStyle;rounded=0;orthogonalLoop=1;jettySize=auto;html=1;entryX=1;entryY=0.5;entryDx=0;entryDy=0;" parent="1" source="QZjYZNE4ChBwINTzzqIZ-48" target="QZjYZNE4ChBwINTzzqIZ-21" edge="1">
          <mxGeometry relative="1" as="geometry">
            <Array as="points">
              <mxPoint x="800" y="648" />
              <mxPoint x="800" y="518" />
              <mxPoint x="610" y="518" />
              <mxPoint x="610" y="263" />
            </Array>
          </mxGeometry>
        </mxCell>
        <mxCell id="QZjYZNE4ChBwINTzzqIZ-77" value="/6" style="edgeLabel;html=1;align=center;verticalAlign=middle;resizable=0;points=[];" parent="QZjYZNE4ChBwINTzzqIZ-71" vertex="1" connectable="0">
          <mxGeometry x="-0.9206" y="3" relative="1" as="geometry">
            <mxPoint as="offset" />
          </mxGeometry>
        </mxCell>
        <mxCell id="QZjYZNE4ChBwINTzzqIZ-48" value="P_addr" style="text;html=1;strokeColor=none;fillColor=none;align=center;verticalAlign=middle;whiteSpace=wrap;rounded=0;" parent="1" vertex="1">
          <mxGeometry x="690" y="638" width="60" height="20" as="geometry" />
        </mxCell>
        <mxCell id="QZjYZNE4ChBwINTzzqIZ-49" value="&lt;b&gt;collapse_y_long&lt;/b&gt;" style="rounded=0;whiteSpace=wrap;html=1;" parent="1" vertex="1">
          <mxGeometry x="485" y="998" width="260" height="250" as="geometry" />
        </mxCell>
        <mxCell id="QZjYZNE4ChBwINTzzqIZ-50" value="" style="triangle;whiteSpace=wrap;html=1;direction=north;" parent="1" vertex="1">
          <mxGeometry x="600" y="1218" width="30" height="30" as="geometry" />
        </mxCell>
        <mxCell id="QZjYZNE4ChBwINTzzqIZ-51" value="rst" style="text;html=1;strokeColor=none;fillColor=none;align=center;verticalAlign=middle;whiteSpace=wrap;rounded=0;" parent="1" vertex="1">
          <mxGeometry x="555" y="1218" width="60" height="30" as="geometry" />
        </mxCell>
        <mxCell id="QZjYZNE4ChBwINTzzqIZ-52" value="en" style="text;html=1;strokeColor=none;fillColor=none;align=center;verticalAlign=middle;whiteSpace=wrap;rounded=0;" parent="1" vertex="1">
          <mxGeometry x="485" y="1013" width="50" height="20" as="geometry" />
        </mxCell>
        <mxCell id="QZjYZNE4ChBwINTzzqIZ-55" value="y" style="text;html=1;strokeColor=none;fillColor=none;align=center;verticalAlign=middle;whiteSpace=wrap;rounded=0;" parent="1" vertex="1">
          <mxGeometry x="665" y="1013" width="80" height="20" as="geometry" />
        </mxCell>
        <mxCell id="QZjYZNE4ChBwINTzzqIZ-63" value="/512" style="edgeStyle=orthogonalEdgeStyle;rounded=0;orthogonalLoop=1;jettySize=auto;html=1;entryX=0;entryY=0.5;entryDx=0;entryDy=0;" parent="1" source="QZjYZNE4ChBwINTzzqIZ-60" target="QZjYZNE4ChBwINTzzqIZ-61" edge="1">
          <mxGeometry relative="1" as="geometry">
            <Array as="points">
              <mxPoint x="800" y="718" />
              <mxPoint x="800" y="948" />
              <mxPoint x="465" y="948" />
              <mxPoint x="465" y="1048" />
            </Array>
          </mxGeometry>
        </mxCell>
        <mxCell id="QZjYZNE4ChBwINTzzqIZ-60" value="y_long" style="text;html=1;strokeColor=none;fillColor=none;align=center;verticalAlign=middle;whiteSpace=wrap;rounded=0;" parent="1" vertex="1">
          <mxGeometry x="670" y="708" width="80" height="20" as="geometry" />
        </mxCell>
        <mxCell id="QZjYZNE4ChBwINTzzqIZ-61" value="y_long" style="text;html=1;strokeColor=none;fillColor=none;align=center;verticalAlign=middle;whiteSpace=wrap;rounded=0;" parent="1" vertex="1">
          <mxGeometry x="485" y="1038" width="80" height="20" as="geometry" />
        </mxCell>
        <mxCell id="QZjYZNE4ChBwINTzzqIZ-68" style="edgeStyle=orthogonalEdgeStyle;rounded=0;orthogonalLoop=1;jettySize=auto;html=1;" parent="1" source="QZjYZNE4ChBwINTzzqIZ-62" target="QZjYZNE4ChBwINTzzqIZ-66" edge="1">
          <mxGeometry relative="1" as="geometry" />
        </mxCell>
        <mxCell id="QZjYZNE4ChBwINTzzqIZ-62" value="rd_y" style="text;html=1;strokeColor=none;fillColor=none;align=center;verticalAlign=middle;whiteSpace=wrap;rounded=0;" parent="1" vertex="1">
          <mxGeometry x="665" y="1033" width="80" height="20" as="geometry" />
        </mxCell>
        <mxCell id="QZjYZNE4ChBwINTzzqIZ-64" value="&lt;b&gt;&lt;font color=&quot;#ff0000&quot; style=&quot;font-size: 14px;&quot;&gt;y&lt;/font&gt;&lt;/b&gt;" style="text;html=1;align=center;verticalAlign=middle;resizable=0;points=[];autosize=1;strokeColor=none;fillColor=none;" parent="1" vertex="1">
          <mxGeometry x="870" y="1006" width="30" height="30" as="geometry" />
        </mxCell>
        <mxCell id="QZjYZNE4ChBwINTzzqIZ-66" value="&lt;b&gt;&lt;font color=&quot;#ff0000&quot; style=&quot;font-size: 14px;&quot;&gt;rd_y&lt;/font&gt;&lt;/b&gt;" style="text;html=1;align=center;verticalAlign=middle;resizable=0;points=[];autosize=1;strokeColor=none;fillColor=none;" parent="1" vertex="1">
          <mxGeometry x="860" y="1028" width="50" height="30" as="geometry" />
        </mxCell>
        <mxCell id="QZjYZNE4ChBwINTzzqIZ-67" style="edgeStyle=orthogonalEdgeStyle;rounded=0;orthogonalLoop=1;jettySize=auto;html=1;entryX=0.1;entryY=0.567;entryDx=0;entryDy=0;entryPerimeter=0;" parent="1" source="QZjYZNE4ChBwINTzzqIZ-55" target="QZjYZNE4ChBwINTzzqIZ-64" edge="1">
          <mxGeometry relative="1" as="geometry" />
        </mxCell>
        <mxCell id="QZjYZNE4ChBwINTzzqIZ-69" value="/8" style="edgeLabel;html=1;align=center;verticalAlign=middle;resizable=0;points=[];" parent="QZjYZNE4ChBwINTzzqIZ-67" vertex="1" connectable="0">
          <mxGeometry x="-0.3125" y="1" relative="1" as="geometry">
            <mxPoint as="offset" />
          </mxGeometry>
        </mxCell>
        <mxCell id="QZjYZNE4ChBwINTzzqIZ-85" style="edgeStyle=orthogonalEdgeStyle;rounded=0;orthogonalLoop=1;jettySize=auto;html=1;entryX=0;entryY=0.25;entryDx=0;entryDy=0;" parent="1" source="QZjYZNE4ChBwINTzzqIZ-84" target="QZjYZNE4ChBwINTzzqIZ-4" edge="1">
          <mxGeometry relative="1" as="geometry" />
        </mxCell>
        <mxCell id="QZjYZNE4ChBwINTzzqIZ-84" value="&lt;font color=&quot;#66cc00&quot;&gt;&lt;span style=&quot;font-size: 14px;&quot;&gt;&lt;b&gt;load_p_storage&lt;br&gt;&lt;/b&gt;&lt;/span&gt;&lt;/font&gt;" style="text;html=1;align=center;verticalAlign=middle;resizable=0;points=[];autosize=1;strokeColor=none;fillColor=none;" parent="1" vertex="1">
          <mxGeometry x="10" y="243" width="130" height="30" as="geometry" />
        </mxCell>
        <mxCell id="QZjYZNE4ChBwINTzzqIZ-87" style="edgeStyle=orthogonalEdgeStyle;rounded=0;orthogonalLoop=1;jettySize=auto;html=1;entryX=0;entryY=0.5;entryDx=0;entryDy=0;" parent="1" source="QZjYZNE4ChBwINTzzqIZ-86" target="QZjYZNE4ChBwINTzzqIZ-26" edge="1">
          <mxGeometry relative="1" as="geometry">
            <Array as="points">
              <mxPoint x="650" y="143" />
              <mxPoint x="650" y="263" />
            </Array>
          </mxGeometry>
        </mxCell>
        <mxCell id="QZjYZNE4ChBwINTzzqIZ-86" value="&lt;font color=&quot;#66cc00&quot;&gt;&lt;span style=&quot;font-size: 14px;&quot;&gt;&lt;b&gt;load_s_storage&lt;br&gt;&lt;/b&gt;&lt;/span&gt;&lt;/font&gt;" style="text;html=1;align=center;verticalAlign=middle;resizable=0;points=[];autosize=1;strokeColor=none;fillColor=none;" parent="1" vertex="1">
          <mxGeometry x="445" y="128" width="130" height="30" as="geometry" />
        </mxCell>
        <mxCell id="QZjYZNE4ChBwINTzzqIZ-91" style="edgeStyle=orthogonalEdgeStyle;rounded=0;orthogonalLoop=1;jettySize=auto;html=1;entryX=0;entryY=0.5;entryDx=0;entryDy=0;" parent="1" source="QZjYZNE4ChBwINTzzqIZ-90" target="QZjYZNE4ChBwINTzzqIZ-38" edge="1">
          <mxGeometry relative="1" as="geometry" />
        </mxCell>
        <mxCell id="QZjYZNE4ChBwINTzzqIZ-90" value="&lt;font color=&quot;#66cc00&quot;&gt;&lt;span style=&quot;font-size: 14px;&quot;&gt;&lt;b&gt;en_compute_y_long&lt;br&gt;&lt;/b&gt;&lt;/span&gt;&lt;/font&gt;" style="text;html=1;align=center;verticalAlign=middle;resizable=0;points=[];autosize=1;strokeColor=none;fillColor=none;" parent="1" vertex="1">
          <mxGeometry x="185" y="638" width="160" height="30" as="geometry" />
        </mxCell>
        <mxCell id="QZjYZNE4ChBwINTzzqIZ-93" style="edgeStyle=orthogonalEdgeStyle;rounded=0;orthogonalLoop=1;jettySize=auto;html=1;entryX=0;entryY=0.5;entryDx=0;entryDy=0;" parent="1" source="QZjYZNE4ChBwINTzzqIZ-92" target="QZjYZNE4ChBwINTzzqIZ-52" edge="1">
          <mxGeometry relative="1" as="geometry" />
        </mxCell>
        <mxCell id="QZjYZNE4ChBwINTzzqIZ-92" value="&lt;font color=&quot;#66cc00&quot;&gt;&lt;span style=&quot;font-size: 14px;&quot;&gt;&lt;b&gt;en_collapse_y_long&lt;br&gt;&lt;/b&gt;&lt;/span&gt;&lt;/font&gt;" style="text;html=1;align=center;verticalAlign=middle;resizable=0;points=[];autosize=1;strokeColor=none;fillColor=none;" parent="1" vertex="1">
          <mxGeometry x="215" y="1008" width="160" height="30" as="geometry" />
        </mxCell>
        <mxCell id="QZjYZNE4ChBwINTzzqIZ-96" style="edgeStyle=orthogonalEdgeStyle;rounded=0;orthogonalLoop=1;jettySize=auto;html=1;entryX=0;entryY=0.5;entryDx=0;entryDy=0;" parent="1" source="QZjYZNE4ChBwINTzzqIZ-94" target="QZjYZNE4ChBwINTzzqIZ-19" edge="1">
          <mxGeometry relative="1" as="geometry" />
        </mxCell>
        <mxCell id="QZjYZNE4ChBwINTzzqIZ-94" value="&lt;font color=&quot;#66cc00&quot;&gt;&lt;span style=&quot;font-size: 14px;&quot;&gt;&lt;b&gt;p_rd_data_in&lt;br&gt;&lt;/b&gt;&lt;/span&gt;&lt;/font&gt;" style="text;html=1;align=center;verticalAlign=middle;resizable=0;points=[];autosize=1;strokeColor=none;fillColor=none;" parent="1" vertex="1">
          <mxGeometry x="30" y="308" width="110" height="30" as="geometry" />
        </mxCell>
        <mxCell id="QZjYZNE4ChBwINTzzqIZ-97" style="edgeStyle=orthogonalEdgeStyle;rounded=0;orthogonalLoop=1;jettySize=auto;html=1;entryX=0;entryY=0.5;entryDx=0;entryDy=0;" parent="1" source="QZjYZNE4ChBwINTzzqIZ-95" target="QZjYZNE4ChBwINTzzqIZ-20" edge="1">
          <mxGeometry relative="1" as="geometry" />
        </mxCell>
        <mxCell id="QZjYZNE4ChBwINTzzqIZ-95" value="&lt;span style=&quot;font-size: 14px;&quot;&gt;&lt;b style=&quot;&quot;&gt;&lt;font color=&quot;#ff0000&quot;&gt;p_rdy_data_in&lt;/font&gt;&lt;br&gt;&lt;/b&gt;&lt;/span&gt;" style="text;html=1;align=center;verticalAlign=middle;resizable=0;points=[];autosize=1;strokeColor=none;fillColor=none;" parent="1" vertex="1">
          <mxGeometry x="20" y="333" width="120" height="30" as="geometry" />
        </mxCell>
        <mxCell id="QZjYZNE4ChBwINTzzqIZ-99" style="edgeStyle=orthogonalEdgeStyle;rounded=0;orthogonalLoop=1;jettySize=auto;html=1;" parent="1" source="QZjYZNE4ChBwINTzzqIZ-98" target="QZjYZNE4ChBwINTzzqIZ-18" edge="1">
          <mxGeometry relative="1" as="geometry" />
        </mxCell>
        <mxCell id="QZjYZNE4ChBwINTzzqIZ-100" value="/8" style="edgeLabel;html=1;align=center;verticalAlign=middle;resizable=0;points=[];" parent="QZjYZNE4ChBwINTzzqIZ-99" vertex="1" connectable="0">
          <mxGeometry x="0.1333" y="1" relative="1" as="geometry">
            <mxPoint as="offset" />
          </mxGeometry>
        </mxCell>
        <mxCell id="QZjYZNE4ChBwINTzzqIZ-98" value="&lt;font color=&quot;#66cc00&quot;&gt;&lt;span style=&quot;font-size: 14px;&quot;&gt;&lt;b&gt;data_in&lt;br&gt;&lt;/b&gt;&lt;/span&gt;&lt;/font&gt;" style="text;html=1;align=center;verticalAlign=middle;resizable=0;points=[];autosize=1;strokeColor=none;fillColor=none;" parent="1" vertex="1">
          <mxGeometry x="50" y="288" width="70" height="30" as="geometry" />
        </mxCell>
        <mxCell id="QZjYZNE4ChBwINTzzqIZ-102" style="edgeStyle=orthogonalEdgeStyle;rounded=0;orthogonalLoop=1;jettySize=auto;html=1;entryX=0;entryY=0.5;entryDx=0;entryDy=0;" parent="1" source="QZjYZNE4ChBwINTzzqIZ-101" target="QZjYZNE4ChBwINTzzqIZ-6" edge="1">
          <mxGeometry relative="1" as="geometry" />
        </mxCell>
        <mxCell id="QZjYZNE4ChBwINTzzqIZ-101" value="&lt;span style=&quot;font-size: 14px;&quot;&gt;&lt;b style=&quot;&quot;&gt;&lt;font color=&quot;#ff0000&quot;&gt;done_p_storage&lt;/font&gt;&lt;br&gt;&lt;/b&gt;&lt;/span&gt;" style="text;html=1;align=center;verticalAlign=middle;resizable=0;points=[];autosize=1;strokeColor=none;fillColor=none;" parent="1" vertex="1">
          <mxGeometry x="15" y="268" width="130" height="30" as="geometry" />
        </mxCell>
        <mxCell id="QZjYZNE4ChBwINTzzqIZ-104" style="edgeStyle=orthogonalEdgeStyle;rounded=0;orthogonalLoop=1;jettySize=auto;html=1;entryX=0;entryY=0.5;entryDx=0;entryDy=0;" parent="1" source="QZjYZNE4ChBwINTzzqIZ-103" target="QZjYZNE4ChBwINTzzqIZ-27" edge="1">
          <mxGeometry relative="1" as="geometry">
            <Array as="points">
              <mxPoint x="640" y="163" />
              <mxPoint x="640" y="283" />
            </Array>
          </mxGeometry>
        </mxCell>
        <mxCell id="QZjYZNE4ChBwINTzzqIZ-103" value="&lt;span style=&quot;font-size: 14px;&quot;&gt;&lt;b style=&quot;&quot;&gt;&lt;font color=&quot;#ff0000&quot;&gt;done_s_storage&lt;/font&gt;&lt;br&gt;&lt;/b&gt;&lt;/span&gt;" style="text;html=1;align=center;verticalAlign=middle;resizable=0;points=[];autosize=1;strokeColor=none;fillColor=none;" parent="1" vertex="1">
          <mxGeometry x="445" y="148" width="130" height="30" as="geometry" />
        </mxCell>
        <mxCell id="QZjYZNE4ChBwINTzzqIZ-106" style="edgeStyle=orthogonalEdgeStyle;rounded=0;orthogonalLoop=1;jettySize=auto;html=1;entryX=0;entryY=0.5;entryDx=0;entryDy=0;" parent="1" source="QZjYZNE4ChBwINTzzqIZ-105" target="QZjYZNE4ChBwINTzzqIZ-39" edge="1">
          <mxGeometry relative="1" as="geometry" />
        </mxCell>
        <mxCell id="QZjYZNE4ChBwINTzzqIZ-105" value="&lt;span style=&quot;font-size: 14px;&quot;&gt;&lt;b style=&quot;&quot;&gt;&lt;font color=&quot;#ff0000&quot;&gt;done_compute_y_long&lt;/font&gt;&lt;br&gt;&lt;/b&gt;&lt;/span&gt;" style="text;html=1;align=center;verticalAlign=middle;resizable=0;points=[];autosize=1;strokeColor=none;fillColor=none;" parent="1" vertex="1">
          <mxGeometry x="165" y="658" width="180" height="30" as="geometry" />
        </mxCell>
        <mxCell id="QZjYZNE4ChBwINTzzqIZ-107" style="edgeStyle=orthogonalEdgeStyle;rounded=0;orthogonalLoop=1;jettySize=auto;html=1;exitX=1.014;exitY=0.5;exitDx=0;exitDy=0;exitPerimeter=0;" parent="1" source="QZjYZNE4ChBwINTzzqIZ-98" target="QZjYZNE4ChBwINTzzqIZ-28" edge="1">
          <mxGeometry relative="1" as="geometry">
            <Array as="points">
              <mxPoint x="220" y="303" />
              <mxPoint x="220" y="218" />
              <mxPoint x="630" y="218" />
              <mxPoint x="630" y="303" />
            </Array>
          </mxGeometry>
        </mxCell>
      </root>
    </mxGraphModel>
  </diagram>
</mxfile>
